<?xml version="1.0" encoding="UTF-8" standalone="no"?>
<!DOCTYPE svg PUBLIC "-//W3C//DTD SVG 1.1//EN" "http://www.w3.org/Graphics/SVG/1.1/DTD/svg11.dtd">
<!-- Created with Vectornator (http://vectornator.io/) -->
<svg height="100%" stroke-miterlimit="10" style="fill-rule:nonzero;clip-rule:evenodd;stroke-linecap:round;stroke-linejoin:round;" version="1.1" viewBox="0 0 329.94 209.19" width="100%" xml:space="preserve" xmlns="http://www.w3.org/2000/svg" xmlns:vectornator="http://vectornator.io" xmlns:xlink="http://www.w3.org/1999/xlink">
<defs/>
<g id="Untitled" vectornator:layerName="Untitled">
<path d="M60.22 148.53C30.5292 148.53 6.46 124.461 6.45999 94.77C6.45999 65.0792 30.5292 41.01 60.22 41.01C89.9108 41.01 113.98 65.0792 113.98 94.77L94.84 94.77C94.84 75.6278 79.3222 60.11 60.18 60.11C41.0378 60.11 25.52 75.6278 25.52 94.77C25.52 113.912 41.0378 129.43 60.18 129.43L60.22 148.53Z" fill="#000000" fill-rule="evenodd" opacity="1" stroke="none"/>
<path d="M60.22 203.03C30.5413 202.991 6.49306 178.939 6.46 149.26L25.56 149.26C25.5655 168.401 41.0858 183.914 60.2267 183.91C79.3675 183.906 94.8818 168.388 94.88 149.247C94.8782 130.106 79.3609 114.59 60.22 114.59L60.22 95.49C89.6277 95.891 113.257 119.845 113.257 149.255C113.257 178.665 89.6277 202.619 60.22 203.02L60.22 203.03ZM152.43 44.23C175.68 44.23 175.68 79.06 152.43 79.06C129.18 79.06 129.18 44.23 152.43 44.23ZM152.43 51.23C138.92 51.23 138.92 72.12 152.43 72.12C165.94 72.12 165.95 51.18 152.43 51.18L152.43 51.23ZM177.63 78.59L177.63 44.85L190.9 44.85C204.04 44.85 203.99 65.69 190.9 65.69L184.38 65.69L184.38 78.59L177.63 78.59ZM190.34 59.12C194.88 59.12 194.88 51.56 190.34 51.56L184.34 51.56L184.34 59.12L190.34 59.12ZM207.54 78.59L207.54 44.8L224.46 44.8L224.46 51.59L214.3 51.59L214.3 58.35L223.18 58.35L223.18 65.1L214.3 65.1L214.3 71.86L225.03 71.86L225.03 78.59L207.54 78.59ZM239.54 78.59L232.78 78.59L232.78 44.09L234.58 44.09L251.64 63.94L251.64 44.85L258.44 44.85L258.44 79.3L256.65 79.3L239.54 60.21L239.54 78.59ZM138.3 111.59C141.117 113.551 144.515 114.499 147.94 114.28C149.94 114.14 151.63 112.72 151.44 110.88C151.25 109.04 149.83 108.09 147.94 107.43C142.65 105.49 137.94 102.8 137.94 97.13C137.836 94.4972 138.783 91.9311 140.573 89.9972C142.362 88.0633 144.847 86.9202 147.48 86.82C150.353 86.686 153.221 87.1702 155.89 88.24L155.04 94.76C152.881 93.7591 150.518 93.2763 148.14 93.35C147.171 93.3386 146.244 93.749 145.601 94.4745C144.958 95.2 144.662 96.169 144.79 97.13C144.98 99.02 146.63 99.87 148.57 100.53C153.81 102.47 158.35 105.53 158.35 110.88C158.35 116.5 154.48 120.8 148.14 121.13C144.425 121.265 140.741 120.416 137.46 118.67L138.3 111.59ZM181.69 86.46C204.94 86.46 204.94 121.29 181.69 121.29C158.44 121.29 158.44 86.46 181.69 86.46ZM181.69 93.41C168.17 93.41 168.17 114.3 181.69 114.3C195.21 114.3 195.2 93.41 181.69 93.41ZM206.69 109.05L206.69 87.05L213.45 87.05L213.45 109.05C213.45 116.14 224.45 116.14 224.45 109.05L224.45 87.05L231.16 87.05L231.16 109.05C231.12 125.12 206.69 125.12 206.69 109.05ZM256.84 120.82L250.03 107.92L246.77 107.92L246.77 120.82L240.01 120.82L240.01 87.03L253.34 87.03C265.39 87.03 266.57 104.03 256.65 106.88L264.49 120.82L256.84 120.82ZM246.77 101.35L252.72 101.35C257.31 101.35 257.31 93.79 252.72 93.79L246.77 93.79L246.77 101.35Z" fill="#000000" fill-rule="evenodd" opacity="1" stroke="none"/>
<path d="M286.04 93.41C272.67 93.41 272.67 114.01 286.04 114.01C288.301 114.023 290.534 113.506 292.56 112.5L293.46 119.5C291.089 120.403 288.577 120.88 286.04 120.91C263.12 120.91 263.17 86.6 286.04 86.6C288.332 86.5739 290.604 87.0269 292.71 87.93L291.9 94.93C290.12 93.9035 288.095 93.3783 286.04 93.41ZM300.27 120.82L300.27 87.03L317.19 87.03L317.19 93.79L307.03 93.79L307.03 100.59L315.91 100.59L315.91 107.34L307.03 107.34L307.03 114.1L317.76 114.1L317.76 120.86L300.27 120.82ZM138.3 153.78C141.114 155.747 144.513 156.699 147.94 156.48C149.94 156.34 151.63 154.92 151.44 153.08C151.25 151.24 149.84 150.29 147.94 149.59C142.65 147.65 137.94 144.96 137.94 139.28C137.716 133.817 141.962 129.206 147.425 128.982L147.48 128.98C150.353 128.846 153.221 129.33 155.89 130.4L155.04 136.92C152.879 135.923 150.519 135.437 148.14 135.5C147.171 135.489 146.244 135.899 145.601 136.624C144.958 137.35 144.662 138.319 144.79 139.28C144.98 141.17 146.63 142.03 148.57 142.69C153.81 144.62 158.35 147.69 158.35 153.04C158.35 158.66 154.48 162.96 148.14 163.29C144.425 163.425 140.741 162.576 137.46 160.83L138.3 153.78ZM165.24 151.28L165.24 129.28L172 129.28L172 151.28C172 158.37 183 158.37 183 151.28L183 129.28L189.71 129.28L189.71 151.28C189.67 167.35 165.24 167.35 165.24 151.28ZM227.39 128.74L229.52 128.74L229.52 163.05L222.66 163.05L222.71 144.19L214.06 153.26L205.42 144.19L205.42 163.05L198.56 163.05L198.56 128.74L200.74 128.74L214.06 143.59L227.39 128.74ZM267.37 128.74L269.5 128.74L269.5 163.05L262.65 163.05L262.7 144.19L254.05 153.26L245.4 144.19L245.4 163.05L238.55 163.05L238.55 128.74L240.72 128.74L254.05 143.59L267.37 128.74ZM278.53 163.05L278.53 129.26L285.29 129.26L285.29 163.05L278.53 163.05ZM299.89 163.05L299.89 136.05L291.48 136.05L291.48 129.34L315.06 129.34L315.06 136.05L306.65 136.05L306.65 163.05L299.89 163.05Z" fill="#000000" fill-rule="evenodd" opacity="1" stroke="none"/>
<path d="M142.291 200.51L139.328 200.51L139.328 185.383L140.115 185.383L147.596 194.086L147.596 185.715L150.58 185.715L150.58 200.82L149.792 200.82L142.291 192.449L142.291 200.51ZM163.114 185.445C173.31 185.445 173.31 200.717 163.114 200.717C152.92 200.717 152.92 185.445 163.114 185.445ZM163.114 188.491C157.188 188.491 157.188 197.651 163.114 197.651C169.041 197.651 169.041 188.491 163.114 188.491ZM182.985 200.51L180.001 194.853L178.571 194.853L178.571 200.51L175.608 200.51L175.608 185.694L181.451 185.694C186.736 185.694 187.253 193.133 182.902 194.397L186.342 200.51L182.985 200.51ZM178.571 191.973L181.182 191.973C183.192 191.973 183.192 188.657 181.182 188.657L178.571 188.657L178.571 191.973ZM192.826 200.51L192.826 188.657L189.138 188.657L189.138 185.715L199.478 185.715L199.478 188.657L195.789 188.657L195.789 200.51L192.826 200.51ZM211.184 200.51L211.184 194.583L206.75 194.583L206.75 200.51L203.786 200.51L203.786 185.694L206.75 185.694L206.75 191.62L211.184 191.62L211.184 185.694L214.148 185.694L214.148 200.51L211.184 200.51ZM232.422 185.155L232.733 185.155L238.97 200.51L235.634 200.51L235.033 198.914L230.122 198.914L229.542 200.51L226.185 200.51L232.422 185.155ZM233.935 196.138L232.588 192.283L231.199 196.138L233.935 196.138ZM255.753 185.466L256.686 185.466L256.686 200.51L253.681 200.51L253.702 192.242L249.91 196.221L246.117 192.242L246.117 200.51L243.113 200.51L243.113 185.466L244.067 185.466L249.91 191.973L255.753 185.466ZM262.093 200.51L262.093 185.694L269.511 185.694L269.511 188.657L265.056 188.657L265.056 191.62L268.951 191.62L268.951 194.583L265.056 194.583L265.056 197.547L269.76 197.547L269.76 200.51L262.093 200.51ZM281.985 200.51L279 194.853L277.57 194.853L277.57 200.51L274.608 200.51L274.608 185.694L280.45 185.694C285.735 185.694 286.253 193.133 281.902 194.397L285.341 200.51L281.985 200.51ZM277.57 191.973L280.182 191.973C282.192 191.973 282.192 188.657 280.182 188.657L277.57 188.657L277.57 191.973ZM289.38 200.51L289.38 185.694L292.344 185.694L292.344 200.51L289.38 200.51ZM304.61 188.491C298.745 188.491 298.745 197.526 304.61 197.526C305.601 197.531 306.581 197.304 307.469 196.863L307.863 199.93C306.824 200.327 305.722 200.537 304.61 200.551C294.56 200.551 294.58 185.508 304.61 185.508C305.613 185.496 306.608 185.693 307.531 186.088L307.179 189.134C306.395 188.694 305.508 188.473 304.61 188.491ZM317.207 185.155L317.518 185.155L323.755 200.51L320.419 200.51L319.819 198.914L314.907 198.914L314.327 200.51L310.97 200.51L317.207 185.155ZM318.72 196.138L317.373 192.283L315.985 196.138L318.72 196.138Z" fill="#000000" fill-rule="evenodd" opacity="1" stroke="none"/>
<path d="M16.2296 6.54068C16.2637 6.53592 16.298 6.54748 16.3222 6.57189C16.3464 6.59629 16.3577 6.63068 16.3526 6.66468L16.3526 8.14319C16.3575 8.17706 16.3461 8.21123 16.3219 8.23542C16.2977 8.25961 16.2635 8.27101 16.2296 8.26619L12.6735 8.26619L12.6735 19.9967C12.6783 20.0306 12.6669 20.0648 12.6427 20.089C12.6185 20.1132 12.5844 20.1246 12.5505 20.1197L11.071 20.1197C11.0371 20.1246 11.0029 20.1132 10.9787 20.089C10.9545 20.0648 10.9431 20.0306 10.9479 19.9967L10.9479 8.26627L7.38248 8.26627C7.34854 8.27121 7.31425 8.25987 7.28994 8.23567C7.26564 8.21147 7.25415 8.17723 7.25895 8.14327L7.25895 6.66471C7.25393 6.63062 7.26531 6.59615 7.28963 6.57174C7.31395 6.54733 7.34837 6.53582 7.38248 6.54071L16.2296 6.54068ZM30.0148 6.54068C30.0489 6.53588 30.0833 6.54741 30.1076 6.5718C30.1319 6.59619 30.1433 6.6306 30.1383 6.66468L30.1383 19.9967C30.143 20.0306 30.1315 20.0648 30.1072 20.089C30.083 20.1132 30.0487 20.1245 30.0148 20.1197L28.526 20.1197C28.4921 20.1245 28.458 20.1131 28.4338 20.0889C28.4096 20.0647 28.3982 20.0306 28.403 19.9967L28.403 14.1745L22.0592 14.1745L22.0592 19.9772C22.0643 20.0113 22.0529 20.0458 22.0286 20.0702C22.0042 20.0946 21.9698 20.1061 21.9357 20.1012L20.4474 20.1012C20.4133 20.1061 20.3789 20.0946 20.3546 20.0702C20.3302 20.0458 20.3189 20.0113 20.3239 19.9772L20.3239 6.64521C20.3191 6.61125 20.3306 6.57701 20.3549 6.55281C20.3792 6.52861 20.4135 6.51727 20.4474 6.52221L21.9357 6.52221C21.9696 6.51727 22.0039 6.5286 22.0282 6.5528C22.0526 6.57701 22.064 6.61124 22.0592 6.64521L22.0592 12.4392L28.403 12.4392L28.403 6.66471C28.398 6.63071 28.4092 6.59632 28.4335 6.57192C28.4577 6.54751 28.492 6.53595 28.526 6.54071L30.0148 6.54068ZM44.3976 6.54068C44.4317 6.53588 44.4661 6.54741 44.4904 6.5718C44.5147 6.5962 44.5261 6.6306 44.5211 6.66468L44.5211 8.14319C44.5259 8.17714 44.5143 8.21132 44.4901 8.2355C44.4658 8.25968 44.4315 8.27105 44.3976 8.26619L37.1818 8.26619L37.1818 12.4674L42.4064 12.4674C42.4403 12.4625 42.4744 12.4739 42.4986 12.4981C42.5228 12.5223 42.5342 12.5565 42.5294 12.5904L42.5294 14.07C42.5342 14.1039 42.5228 14.138 42.4986 14.1622C42.4744 14.1864 42.4403 14.1978 42.4064 14.193L37.1818 14.193L37.1818 18.3942L44.3976 18.3942C44.4315 18.3893 44.4658 18.4007 44.4901 18.4249C44.5143 18.4491 44.5259 18.4833 44.5211 18.5172L44.5211 19.9967C44.5259 20.0306 44.5143 20.0648 44.4901 20.089C44.4658 20.1132 44.4315 20.1245 44.3976 20.1197L35.5793 20.1197C35.5453 20.1246 35.511 20.1133 35.4867 20.0891C35.4624 20.0649 35.4509 20.0307 35.4557 19.9967L35.4557 6.66469C35.4507 6.63059 35.4621 6.59613 35.4864 6.57172C35.5107 6.54731 35.5451 6.53581 35.5793 6.54069L44.3976 6.54068ZM63.1789 18.3844C63.2127 18.3796 63.2469 18.391 63.2711 18.4152C63.2953 18.4394 63.3067 18.4736 63.3019 18.5074L63.3019 19.9967C63.3067 20.0306 63.2953 20.0647 63.2711 20.0889C63.2469 20.1131 63.2127 20.1245 63.1789 20.1197L55.631 20.1197C55.5971 20.1246 55.5628 20.1133 55.5385 20.0891C55.5142 20.0649 55.5027 20.0307 55.5075 19.9967L55.5075 6.65494C55.5027 6.62098 55.5142 6.58674 55.5385 6.56254C55.5628 6.53834 55.5971 6.527 55.631 6.53194L57.1193 6.53194C57.1532 6.527 57.1875 6.53834 57.2118 6.56254C57.2361 6.58674 57.2476 6.62098 57.2428 6.65494L57.2428 18.3844L63.1789 18.3844ZM68.9611 6.54068C68.9952 6.5358 69.0296 6.5473 69.0539 6.57171C69.0783 6.59612 69.0896 6.63058 69.0846 6.66468L69.0846 19.9967C69.0894 20.0306 69.0779 20.0649 69.0536 20.0891C69.0293 20.1133 68.995 20.1246 68.9611 20.1197L67.4728 20.1197C67.4389 20.1246 67.4046 20.1133 67.3803 20.0891C67.356 20.0649 67.3445 20.0306 67.3493 19.9967L67.3493 6.66468C67.3443 6.63059 67.3556 6.59612 67.38 6.57171C67.4043 6.5473 67.4387 6.53579 67.4728 6.54068L68.9611 6.54068ZM84.0553 6.53189C84.0892 6.52705 84.1234 6.53844 84.1476 6.56264C84.1718 6.58683 84.1832 6.62101 84.1784 6.65489L84.1784 19.9967C84.1832 20.0306 84.1718 20.0647 84.1476 20.0889C84.1234 20.1131 84.0892 20.1245 84.0553 20.1197L83.382 20.1197C83.3445 20.1202 83.3091 20.1023 83.2873 20.0718L76.0519 10.4097L76.0519 19.9966C76.0567 20.0305 76.0453 20.0647 76.0211 20.0889C75.997 20.1131 75.9628 20.1245 75.9289 20.1196L74.5256 20.1196C74.4917 20.1246 74.4574 20.1132 74.4331 20.089C74.4088 20.0648 74.3973 20.0306 74.4021 19.9966L74.4021 6.65494C74.3973 6.62098 74.4088 6.58674 74.4331 6.56254C74.4574 6.53834 74.4917 6.527 74.5256 6.53194L75.1511 6.53194C75.1905 6.53247 75.2267 6.55409 75.2458 6.58859L82.5285 16.3083L82.5285 6.65494C82.5237 6.62107 82.5351 6.5869 82.5593 6.56271C82.5835 6.53852 82.6177 6.52712 82.6515 6.53194L84.0553 6.53189ZM98.9123 6.54068C98.9464 6.53588 98.9807 6.54741 99.005 6.5718C99.0293 6.5962 99.0407 6.6306 99.0358 6.66468L99.0358 15.2457C99.0276 17.9048 96.8961 20.07 94.2375 20.1197C92.9168 20.1613 91.6421 19.6326 90.7385 18.6685C89.7874 17.7436 89.2592 16.4678 89.278 15.1412L89.278 6.66471C89.273 6.63062 89.2844 6.59616 89.3087 6.57174C89.333 6.54733 89.3674 6.53583 89.4015 6.54071L90.8805 6.54071C90.9147 6.53583 90.9491 6.54733 90.9734 6.57174C90.9977 6.59616 91.0091 6.63062 91.0041 6.66471L91.0041 15.1608C90.9927 15.9917 91.3057 16.7943 91.8766 17.3981C92.7596 18.3366 94.1259 18.6411 95.3239 18.1665C96.5219 17.6919 97.309 16.5343 97.3097 15.2458L97.3097 6.66471C97.3047 6.63062 97.3161 6.59616 97.3404 6.57174C97.3647 6.54733 97.3992 6.53582 97.4333 6.54071L98.9123 6.54068ZM113.513 6.55045C113.558 6.55076 113.599 6.57655 113.618 6.61686C113.643 6.65408 113.643 6.70264 113.618 6.73986L109.465 13.3492L113.599 19.9303C113.624 19.9675 113.624 20.0161 113.599 20.0533C113.58 20.0936 113.539 20.1194 113.494 20.1197L111.778 20.1197C111.736 20.1209 111.696 20.0992 111.674 20.063L108.459 14.942L105.254 20.063C105.232 20.0992 105.192 20.1208 105.15 20.1197L103.434 20.1197C103.389 20.1194 103.349 20.0936 103.329 20.0533C103.304 20.0162 103.304 19.9674 103.329 19.9303L107.464 13.3492L103.31 6.73986C103.285 6.70279 103.285 6.65393 103.31 6.61686C103.327 6.57426 103.369 6.54736 103.415 6.55045L105.121 6.55045C105.164 6.5461 105.206 6.56855 105.226 6.60709L108.459 11.7565L111.702 6.60709C111.722 6.56868 111.763 6.54624 111.806 6.55045L113.513 6.55045ZM125.827 8.25748L125.827 12.4391L130.967 12.4391C131.001 12.4343 131.035 12.4457 131.059 12.4699C131.083 12.4941 131.095 12.5282 131.09 12.5621L131.09 14.0514C131.095 14.0853 131.083 14.1194 131.059 14.1436C131.035 14.1678 131.001 14.1792 130.967 14.1744L125.827 14.1744L125.827 19.9966C125.832 20.0306 125.821 20.0649 125.796 20.0891C125.772 20.1133 125.738 20.1246 125.704 20.1196L124.215 20.1196C124.182 20.1246 124.147 20.1133 124.123 20.0891C124.099 20.0649 124.087 20.0306 124.092 19.9966L124.092 6.64518C124.087 6.61121 124.099 6.57697 124.123 6.55277C124.147 6.52857 124.182 6.51723 124.215 6.52218L132.456 6.52218C132.49 6.51736 132.524 6.52876 132.548 6.55295C132.572 6.57714 132.584 6.61131 132.579 6.64518L132.579 8.13443C132.584 8.16831 132.572 8.20249 132.548 8.2267C132.524 8.2509 132.49 8.2623 132.456 8.25748L125.827 8.25748ZM142.04 6.54068C145.788 6.54585 148.825 9.58296 148.829 13.3307C148.831 16.4046 146.768 19.0964 143.799 19.8928C140.83 20.6892 137.696 19.3914 136.16 16.7291C134.623 14.0668 135.067 10.7042 137.242 8.53185C138.498 7.23422 140.234 6.51358 142.04 6.54068ZM142.04 18.3844C144.084 18.3836 145.927 17.1521 146.709 15.2637C147.491 13.3753 147.06 11.2016 145.615 9.75553C143.64 7.78279 140.441 7.78346 138.467 9.75703C136.493 11.7306 136.492 14.9303 138.465 16.9049C139.401 17.8706 140.695 18.4061 142.04 18.3844ZM162.975 6.54068C163.009 6.53587 163.043 6.54737 163.068 6.57175C163.092 6.59613 163.104 6.63054 163.099 6.66468L163.099 15.2457C163.09 17.9046 160.959 20.0695 158.3 20.1197C156.98 20.1613 155.705 19.6326 154.801 18.6686C153.85 17.7436 153.322 16.4678 153.341 15.1412L153.341 6.66471C153.336 6.63062 153.347 6.59616 153.372 6.57174C153.396 6.54733 153.43 6.53583 153.465 6.54071L154.944 6.54071C154.978 6.53583 155.012 6.54733 155.036 6.57174C155.061 6.59616 155.072 6.63062 155.067 6.66471L155.067 15.1608C155.056 15.9917 155.369 16.7943 155.94 17.3981C156.822 18.3367 158.189 18.6414 159.387 18.1667C160.585 17.6921 161.372 16.5343 161.372 15.2458L161.372 6.66471C161.367 6.63054 161.379 6.59602 161.403 6.5716C161.428 6.54718 161.462 6.53573 161.496 6.54071L162.975 6.54068ZM177.927 6.53189C177.961 6.52705 177.995 6.53844 178.019 6.56264C178.043 6.58683 178.055 6.62101 178.05 6.65489L178.05 19.9967C178.055 20.0306 178.043 20.0647 178.019 20.0889C177.995 20.1131 177.961 20.1245 177.927 20.1197L177.254 20.1197C177.217 20.1203 177.181 20.1024 177.159 20.0718L169.924 10.4098L169.924 19.9967C169.929 20.0306 169.917 20.0648 169.893 20.089C169.869 20.1132 169.835 20.1246 169.801 20.1197L168.398 20.1197C168.364 20.1248 168.329 20.1135 168.305 20.0893C168.28 20.0651 168.269 20.0308 168.274 19.9967L168.274 6.65494C168.269 6.6209 168.28 6.5866 168.305 6.5624C168.329 6.53819 168.364 6.5269 168.398 6.53194L169.023 6.53194C169.062 6.53236 169.098 6.55401 169.117 6.58859L176.401 16.3083L176.401 6.65494C176.396 6.62107 176.407 6.5869 176.431 6.56271C176.456 6.53852 176.49 6.52712 176.524 6.53194L177.927 6.53189ZM187.796 6.51236C189.623 6.51412 191.372 7.24897 192.652 8.55211C193.932 9.85525 194.636 11.6176 194.605 13.444C194.594 15.2417 193.838 16.9546 192.519 18.1755C191.232 19.4453 189.49 20.1458 187.683 20.1198L183.491 20.1198C183.457 20.1246 183.423 20.1132 183.399 20.089C183.375 20.0648 183.364 20.0307 183.368 19.9968L183.368 6.63541C183.364 6.60154 183.375 6.56737 183.399 6.54318C183.423 6.51899 183.457 6.50759 183.491 6.51241L187.796 6.51236ZM187.796 18.3844C189.848 18.3861 191.699 17.1505 192.484 15.2547C193.269 13.3589 192.833 11.1767 191.381 9.72721C190.442 8.76026 189.144 8.2248 187.796 8.24771L185.104 8.24771L185.104 18.3844L187.796 18.3844ZM204.901 6.51236C204.952 6.50832 204.999 6.53981 205.015 6.58854L210.562 19.9489C210.581 19.9856 210.577 20.0302 210.552 20.0631C210.53 20.0994 210.491 20.1211 210.448 20.1198L208.931 20.1198C208.88 20.1238 208.833 20.0922 208.818 20.0436L206.646 14.8092L201.838 14.8092L199.666 20.0436C199.651 20.0922 199.604 20.1238 199.553 20.1198L198.035 20.1198C197.993 20.1209 197.953 20.0993 197.931 20.0631C197.906 20.0299 197.903 19.9855 197.922 19.9489L203.469 6.58854C203.488 6.54209 203.533 6.51188 203.583 6.51236L204.901 6.51236ZM205.953 13.1598L204.246 9.03482L202.53 13.1598L205.953 13.1598ZM222.309 6.54068C222.343 6.53592 222.377 6.54748 222.401 6.57189C222.425 6.59629 222.437 6.63068 222.432 6.66468L222.432 8.14319C222.437 8.17706 222.425 8.21123 222.401 8.23542C222.377 8.25961 222.343 8.27101 222.309 8.26619L218.753 8.26619L218.753 19.9967C218.758 20.0306 218.747 20.0648 218.722 20.089C218.698 20.1132 218.664 20.1246 218.63 20.1197L217.151 20.1197C217.117 20.1246 217.082 20.1132 217.058 20.089C217.034 20.0648 217.023 20.0306 217.027 19.9967L217.027 8.26627L213.462 8.26627C213.428 8.27131 213.394 8.26003 213.369 8.23582C213.345 8.21161 213.333 8.17731 213.338 8.14327L213.338 6.66471C213.333 6.63054 213.345 6.59602 213.369 6.5716C213.393 6.54718 213.428 6.53573 213.462 6.54071L222.309 6.54068ZM228.015 6.54068C228.049 6.5357 228.083 6.54715 228.108 6.57157C228.132 6.59599 228.144 6.63051 228.139 6.66468L228.139 19.9967C228.144 20.0307 228.132 20.065 228.108 20.0892C228.083 20.1134 228.049 20.1247 228.015 20.1197L226.527 20.1197C226.493 20.1245 226.458 20.1131 226.434 20.0889C226.41 20.0647 226.399 20.0306 226.404 19.9967L226.404 6.66468C226.398 6.63068 226.41 6.59629 226.434 6.57188C226.458 6.54748 226.492 6.53591 226.527 6.54068L228.015 6.54068ZM239.269 6.54068C243.016 6.54585 246.053 9.58296 246.058 13.3307C246.06 16.4045 243.996 19.0962 241.027 19.8925C238.059 20.6888 234.925 19.391 233.389 16.7288C231.852 14.0665 232.296 10.7041 234.471 8.53185C235.727 7.23423 237.463 6.51359 239.269 6.54068ZM239.269 18.3844C241.076 18.387 242.747 17.4242 243.652 15.8594C244.556 14.2946 244.556 12.3659 243.652 10.8011C242.747 9.23623 241.076 8.27347 239.269 8.27604C237.225 8.277 235.382 9.5085 234.6 11.3968C233.818 13.2851 234.249 15.4587 235.694 16.9049C236.63 17.8706 237.924 18.4061 239.269 18.3844ZM260.442 6.53189C260.475 6.52707 260.51 6.53847 260.534 6.56266C260.558 6.58685 260.569 6.62102 260.565 6.65489L260.565 19.9967C260.569 20.0306 260.558 20.0647 260.534 20.0889C260.51 20.1131 260.475 20.1245 260.442 20.1197L259.768 20.1197C259.73 20.1201 259.695 20.1022 259.673 20.0718L252.438 10.4097L252.438 19.9966C252.442 20.0305 252.431 20.0647 252.407 20.0889C252.383 20.1131 252.348 20.1245 252.315 20.1196L250.911 20.1196C250.877 20.1245 250.843 20.1131 250.819 20.0889C250.795 20.0647 250.783 20.0305 250.788 19.9966L250.788 6.65494C250.783 6.62107 250.795 6.5869 250.819 6.56271C250.843 6.53852 250.877 6.52712 250.911 6.53194L251.537 6.53194C251.577 6.5326 251.613 6.55418 251.632 6.58859L258.914 16.3083L258.914 6.65494C258.909 6.62107 258.921 6.5869 258.945 6.56271C258.969 6.53852 259.003 6.52712 259.037 6.53194L260.442 6.53189Z" fill="#000000" fill-rule="evenodd" opacity="1" stroke="none"/>
</g>
</svg>
